<svg width="46" height="21" viewBox="0 0 46 21" fill="none" xmlns="http://www.w3.org/2000/svg">
<path d="M6.29497 18.2698C5.20085 18.2698 4.24911 18.0824 3.43975 17.7077C2.6304 17.318 2.0009 16.786 1.55126 16.1115C1.11661 15.4221 0.899282 14.6352 0.899282 13.7509C0.899282 12.8666 1.07914 12.1022 1.43885 11.4577C1.79856 10.7982 2.30816 10.2887 2.96763 9.92894C3.6271 9.56923 4.40648 9.38937 5.30576 9.38937V9.8615C4.15169 9.75658 3.21493 9.38937 2.49551 8.75988C1.77608 8.13038 1.41637 7.2236 1.41637 6.03955C1.41637 5.27516 1.61871 4.5932 2.02338 3.99368C2.42806 3.37917 2.99761 2.89206 3.73202 2.53235C4.46643 2.17264 5.32075 1.99278 6.29497 1.99278C7.28419 1.99278 8.1385 2.17264 8.85793 2.53235C9.59234 2.89206 10.1619 3.37917 10.5666 3.99368C10.9712 4.5932 11.1736 5.27516 11.1736 6.03955C11.1736 7.2236 10.8139 8.13038 10.0944 8.75988C9.37502 9.38937 8.43826 9.75658 7.28418 9.8615V9.38937C8.18347 9.38937 8.96284 9.56923 9.62232 9.92894C10.2818 10.2887 10.7914 10.7982 11.1511 11.4577C11.5108 12.1022 11.6907 12.8666 11.6907 13.7509C11.6907 14.6352 11.4658 15.4221 11.0162 16.1115C10.5816 16.786 9.95955 17.318 9.1502 17.7077C8.34084 18.0824 7.3891 18.2698 6.29497 18.2698ZM6.29497 16.6286C7.37411 16.6286 8.25091 16.3588 8.92537 15.8192C9.59984 15.2797 9.93707 14.5378 9.93707 13.5935C9.93707 12.9041 9.77969 12.327 9.46494 11.8624C9.1502 11.3978 8.71554 11.0456 8.16098 10.8057C7.62142 10.5659 6.99941 10.446 6.29497 10.446C5.60553 10.446 4.98352 10.5659 4.42896 10.8057C3.87441 11.0456 3.43975 11.3978 3.12501 11.8624C2.81026 12.327 2.65288 12.9041 2.65288 13.5935C2.65288 14.5378 2.99011 15.2797 3.66457 15.8192C4.33904 16.3588 5.21584 16.6286 6.29497 16.6286ZM6.29497 8.80484C7.16428 8.80484 7.89869 8.57253 8.49822 8.1079C9.11273 7.64327 9.41998 6.99129 9.41998 6.15196C9.41998 5.40256 9.1427 4.79554 8.58814 4.33091C8.03359 3.86628 7.2692 3.63397 6.29497 3.63397C5.33574 3.63397 4.57135 3.86628 4.00181 4.33091C3.44725 4.79554 3.16997 5.40256 3.16997 6.15196C3.16997 6.99129 3.46973 7.64327 4.06925 8.1079C4.68376 8.57253 5.42567 8.80484 6.29497 8.80484ZM18.5261 18.2698C17.3121 18.2698 16.2704 17.955 15.4011 17.3255C14.5318 16.696 13.8648 15.8043 13.4002 14.6502C12.9356 13.4811 12.7032 12.1097 12.7032 10.536C12.7032 8.82732 12.958 7.33601 13.4676 6.06203C13.9772 4.77306 14.6892 3.77635 15.6034 3.07192C16.5177 2.35249 17.5818 1.99278 18.7959 1.99278C19.6802 1.99278 20.4745 2.18013 21.179 2.55483C21.8984 2.92953 22.4904 3.45411 22.9551 4.12857C23.4197 4.78805 23.7194 5.55993 23.8543 6.44423L22.393 6.78146L22.1457 6.73649C21.9359 5.79225 21.5312 5.04284 20.9317 4.48829C20.3321 3.91874 19.5902 3.63397 18.7059 3.63397C17.8966 3.63397 17.1772 3.90375 16.5477 4.44332C15.9182 4.9679 15.4161 5.74728 15.0414 6.78146C14.6667 7.80064 14.4643 9.05214 14.4344 10.536C14.4344 10.6409 14.4344 10.7533 14.4344 10.8732C14.4344 10.9781 14.4344 11.0905 14.4344 11.2104L14.1421 10.8957C14.3819 10.2812 14.7341 9.74909 15.1987 9.29945C15.6784 8.83482 16.2329 8.4751 16.8624 8.22031C17.4919 7.96551 18.1589 7.83811 18.8633 7.83811C19.8226 7.83811 20.6844 8.06293 21.4488 8.51257C22.2281 8.96221 22.8426 9.57672 23.2923 10.3561C23.7419 11.1205 23.9667 12.0048 23.9667 13.009C23.9667 14.0282 23.7269 14.9349 23.2473 15.7293C22.7827 16.5237 22.1382 17.1457 21.3139 17.5953C20.5045 18.045 19.5753 18.2698 18.5261 18.2698ZM18.5935 16.6286C19.298 16.6286 19.92 16.4787 20.4595 16.179C21.0141 15.8642 21.4413 15.437 21.741 14.8975C22.0558 14.3579 22.2131 13.7434 22.2131 13.0539C22.2131 12.3495 22.0558 11.735 21.741 11.2104C21.4413 10.6709 21.0141 10.2512 20.4595 9.95143C19.92 9.63668 19.298 9.4793 18.5935 9.4793C17.8891 9.4793 17.2596 9.63668 16.705 9.95143C16.1655 10.2512 15.7383 10.6709 15.4236 11.2104C15.1238 11.735 14.9739 12.3495 14.9739 13.0539C14.9739 13.7434 15.1238 14.3579 15.4236 14.8975C15.7383 15.437 16.1655 15.8642 16.705 16.179C17.2596 16.4787 17.8891 16.6286 18.5935 16.6286ZM24.5362 20.1358L32.2026 0.823711H34.0236L26.3572 20.1358H24.5362ZM43.7035 18L38.0156 2.73469L37.8582 2.26256H39.5443L45.5246 17.8201V18H43.7035ZM31.878 18V17.8201L37.8582 2.26256H39.5443L39.387 2.73469L33.699 18H31.878ZM34.0812 13.8408L34.7557 12.1996H42.8717L43.5462 13.8408H34.0812Z" fill="url(#paint0_linear_5319_3818)"/>
<defs>
<linearGradient id="paint0_linear_5319_3818" x1="5.89542" y1="11" x2="38.0001" y2="11.0045" gradientUnits="userSpaceOnUse">
<stop offset="0.1875" stop-color="#A2FD70"/>
<stop offset="0.673077" stop-color="#FFFF1E"/>
</linearGradient>
</defs>
</svg>
