<svg width="146" height="40" viewBox="0 0 146 40" fill="none" xmlns="http://www.w3.org/2000/svg">
<path d="M0.00457038 24.7373C-0.0371635 24.3887 0.211577 24.0723 0.560153 24.0305L22.9533 21.3789L28.5422 20.7096L46.7618 18.5611C47.1103 18.5194 47.4268 18.7681 47.4685 19.1167L47.8464 22.2726C47.8881 22.6212 47.6394 22.9376 47.2908 22.9793L28.4868 25.1978L19.7492 26.2442L1.08917 28.4487C0.740579 28.4905 0.424145 28.2417 0.382409 27.8931L0.00457038 24.7373Z" fill="white"/>
<path d="M10.9856 5.18871C10.8163 4.88115 10.9284 4.49458 11.236 4.32529L14.0206 2.79262C14.3282 2.62333 14.7147 2.73543 14.884 3.04299L21.8631 15.3417C22.0324 15.6493 21.9203 16.0359 21.6127 16.2052L18.8281 17.7378C18.5205 17.9071 18.134 17.795 17.9647 17.4875L10.9856 5.18871ZM23.7393 25.8009C23.57 25.4933 23.6821 25.1067 23.9897 24.9375L26.7743 23.4048C27.0819 23.2355 27.4684 23.3476 27.6377 23.6551L28.4868 25.1978L34.8178 36.6996C34.9871 37.0071 34.875 37.3937 34.5675 37.563L31.7828 39.0957C31.4753 39.2649 31.0887 39.1529 30.9194 38.8453L24.4999 27.1826L23.7393 25.8009Z" fill="white"/>
<path d="M36.8404 1.14448C37.1696 1.26651 37.3376 1.63229 37.2155 1.96147L36.6632 3.45151L36.442 4.04357C34.2559 9.84095 31.6076 15.4112 28.5422 20.7096C27.266 22.9155 25.9175 25.0743 24.4999 27.1826C22.6952 29.8667 20.7787 32.4691 18.757 34.9831C18.5573 35.2315 18.19 35.2601 17.9531 35.0469L15.4692 32.8125C15.2488 32.6143 15.2224 32.2782 15.4077 32.0469C16.9174 30.1629 18.3656 28.2277 19.7492 26.2442C20.8593 24.6529 21.9278 23.0307 22.9533 21.3789C26.749 15.265 29.9546 8.74711 32.4908 1.90497L33.0433 0.41484C33.1654 0.0856932 33.5311 -0.0822087 33.8603 0.0398044L36.8404 1.14448Z" fill="white"/>
<path d="M61.8624 24.0869L54.3015 12.9767V12.5309H55.9524L63.5298 23.6412V24.0869H61.8624ZM54.3015 24.0869V12.5309H55.9524V24.0869H54.3015ZM61.8624 24.0869V12.5309H63.5298V24.0869H61.8624ZM69.2738 24.318C68.4483 24.318 67.7164 24.1364 67.0781 23.7733C66.4508 23.3991 65.961 22.8818 65.6089 22.2214C65.2567 21.5611 65.0806 20.7962 65.0806 19.9268C65.0806 19.0573 65.2512 18.2979 65.5923 17.6486C65.9445 16.9882 66.4288 16.4765 67.0451 16.1133C67.6724 15.7391 68.3933 15.552 69.2077 15.552C70.0111 15.552 70.71 15.7391 71.3043 16.1133C71.9096 16.4875 72.3774 17.0157 72.7075 17.6981C73.0487 18.3694 73.2193 19.1564 73.2193 20.0588V20.3065L72.9717 20.5541H65.9225V19.1013H72.4269L71.585 19.4315C71.5629 18.9362 71.4419 18.5125 71.2218 18.1603C71.0127 17.8082 70.732 17.5385 70.3798 17.3514C70.0387 17.1533 69.6535 17.0543 69.2242 17.0543C68.762 17.0543 68.3383 17.1643 67.9531 17.3844C67.5679 17.6046 67.2652 17.9127 67.0451 18.3089C66.836 18.6941 66.7314 19.1454 66.7314 19.6626V20.1579C66.7314 20.6641 66.8415 21.1209 67.0616 21.5281C67.2817 21.9243 67.5844 22.238 67.9696 22.4691C68.3548 22.7002 68.7895 22.8158 69.2738 22.8158C69.736 22.8158 70.1432 22.7002 70.4954 22.4691C70.8586 22.2269 71.1447 21.9078 71.3538 21.5116H71.5519L72.8891 22.0894C72.57 22.7827 72.0967 23.3275 71.4694 23.7237C70.8421 24.1199 70.1102 24.318 69.2738 24.318ZM82.123 15.7831V24.0869H80.5547V21.8583L81.0004 21.9903C80.8353 22.4636 80.5877 22.8763 80.2575 23.2285C79.9273 23.5696 79.5366 23.8393 79.0854 24.0374C78.6452 24.2245 78.1664 24.318 77.6491 24.318C77.0658 24.318 76.5376 24.1915 76.0643 23.9383C75.5911 23.6742 75.2169 23.2945 74.9417 22.7992C74.6666 22.293 74.529 21.6712 74.529 20.9338V15.7831H76.1799V20.4715C76.1799 21.0218 76.2569 21.4676 76.411 21.8087C76.5761 22.1499 76.8017 22.3975 77.0879 22.5516C77.374 22.6947 77.7042 22.7662 78.0784 22.7662C78.4526 22.7662 78.8213 22.6727 79.1844 22.4856C79.5586 22.2985 79.8668 22.0068 80.1089 21.6106C80.351 21.2144 80.4721 20.7027 80.4721 20.0753V15.7831H82.123ZM83.9544 24.0869V15.7831H85.5227V18.0118L85.077 17.8632C85.2971 17.2249 85.6713 16.7186 86.1995 16.3444C86.7388 15.9702 87.3551 15.7831 88.0485 15.7831H88.8574V17.3019H87.7844C87.3441 17.3019 86.9589 17.4064 86.6288 17.6156C86.3096 17.8137 86.0565 18.0943 85.8694 18.4575C85.6933 18.8207 85.6052 19.2499 85.6052 19.7452V24.0869H83.9544ZM92.0033 24.318C91.442 24.318 90.9358 24.208 90.4845 23.9879C90.0443 23.7677 89.6976 23.4651 89.4445 23.0799C89.1914 22.6837 89.0648 22.2325 89.0648 21.7262C89.0648 20.9668 89.3289 20.3615 89.8572 19.9102C90.3855 19.448 91.1339 19.1784 92.1024 19.1013L95.305 18.8372V20.2569L92.383 20.488C91.8217 20.5321 91.409 20.6531 91.1449 20.8512C90.8808 21.0493 90.7487 21.319 90.7487 21.6602C90.7487 21.9903 90.8918 22.2655 91.1779 22.4856C91.4641 22.6947 91.8272 22.7992 92.2675 22.7992C92.7297 22.7992 93.1479 22.6892 93.5221 22.4691C93.9073 22.249 94.21 21.9573 94.4301 21.5941C94.6502 21.2199 94.7603 20.8182 94.7603 20.389V19.0353C94.7603 18.452 94.5732 17.9732 94.199 17.599C93.8358 17.2249 93.3515 17.0378 92.7462 17.0378C92.24 17.0378 91.8162 17.1588 91.4751 17.4009C91.1449 17.6431 90.9248 17.9622 90.8147 18.3584H90.6331L89.2134 17.9622C89.4335 17.2249 89.8517 16.6361 90.468 16.1958C91.0844 15.7556 91.8438 15.5355 92.7462 15.5355C93.9018 15.5355 94.7988 15.8767 95.4371 16.559C96.0754 17.2304 96.3946 18.1768 96.3946 19.3985V24.0869H94.8758V21.6767L95.4701 21.8583C95.3381 22.3095 95.1014 22.7222 94.7603 23.0964C94.4301 23.4706 94.0284 23.7677 93.5551 23.9879C93.0819 24.208 92.5646 24.318 92.0033 24.318ZM98.402 24.0869V12.2008L100.003 12.0026L100.053 12.1347V24.0869H98.402ZM109.614 24.0869L105.438 12.8776L105.339 12.5309H106.989L111.381 23.9548V24.0869H109.614ZM100.947 24.0869V23.9548L105.339 12.5309H106.989L106.857 12.8776L102.681 24.0869H100.947ZM102.763 21.2309L103.259 19.6461H109.218L109.713 21.2309H102.763ZM112.185 24.0869V15.7831H113.753V18.0118L113.307 17.8632C113.527 17.2249 113.902 16.7186 114.43 16.3444C114.969 15.9702 115.585 15.7831 116.279 15.7831H117.088V17.3019H116.015C115.574 17.3019 115.189 17.4064 114.859 17.6156C114.54 17.8137 114.287 18.0943 114.1 18.4575C113.924 18.8207 113.836 19.2499 113.836 19.7452V24.0869H112.185ZM121.439 24.318C120.602 24.318 119.865 24.1364 119.227 23.7733C118.588 23.3991 118.088 22.8818 117.724 22.2214C117.372 21.5611 117.196 20.7962 117.196 19.9268C117.196 19.0573 117.372 18.2979 117.724 17.6486C118.088 16.9882 118.588 16.4765 119.227 16.1133C119.865 15.7391 120.602 15.552 121.439 15.552C122.088 15.552 122.666 15.662 123.172 15.8822C123.689 16.1023 124.13 16.4269 124.493 16.8562C124.856 17.2744 125.126 17.7916 125.302 18.408L123.899 18.8042H123.717C123.541 18.2649 123.244 17.8412 122.825 17.533C122.418 17.2249 121.956 17.0708 121.439 17.0708C120.91 17.0708 120.454 17.1918 120.069 17.434C119.683 17.6761 119.381 18.0118 119.161 18.441C118.951 18.8592 118.847 19.3545 118.847 19.9268C118.847 20.4991 118.951 20.9998 119.161 21.429C119.381 21.8583 119.683 22.1939 120.069 22.4361C120.454 22.6672 120.91 22.7827 121.439 22.7827C121.813 22.7827 122.154 22.7167 122.462 22.5846C122.77 22.4526 123.035 22.26 123.255 22.0068C123.486 21.7427 123.662 21.429 123.783 21.0658H123.965L125.384 21.4621C125.186 22.0784 124.9 22.6011 124.526 23.0304C124.152 23.4596 123.706 23.7843 123.189 24.0044C122.682 24.2135 122.099 24.318 121.439 24.318Z" fill="white"/>
<path d="M126.021 12.8447V9.19155H126.412V12.8447H126.021ZM124.873 9.57252V9.19155H127.555V9.57252H124.873ZM129.65 12.8447L129.655 12.7351L131.169 9.19155H131.539V9.30114L130.026 12.8447H129.65ZM128.001 12.8447V9.19155H128.393V12.8447H128.001ZM129.655 12.8447L128.137 9.30114V9.19155H128.513L130.026 12.7351V12.8447H129.655ZM131.284 12.8447V9.19155H131.675V12.8447H131.284Z" fill="white"/>
</svg>
